<svg width="150" height="150" viewBox="0 0 150 150" fill="none" xmlns="http://www.w3.org/2000/svg">
<rect width="150" height="150" fill="#050A0D"/>
<rect x="22" y="75" width="75" height="75" transform="rotate(-45 22 75)" fill="white"/>
<rect x="57" y="75" width="25" height="25" transform="rotate(-45 57 75)" fill="#050A0D"/>
<path fill-rule="evenodd" clip-rule="evenodd" d="M36.5355 71.4645L33 75L36.5355 78.5355L50.6777 92.6777L57.7487 85.6066L47.1421 75L75.4264 46.7157L86.033 57.3223L93.1041 50.2513L78.9619 36.1091L75.4264 32.5736L71.8909 36.1091L36.5355 71.4645ZM100.175 57.3223L93.1041 64.3934L103.711 75L75.4264 103.284L64.8198 92.6777L57.7487 99.7487L71.8909 113.891L75.4264 117.426L78.9619 113.891L114.317 78.5355L117.853 75L114.317 71.4645L100.175 57.3223Z" fill="#050A0D"/>
</svg>
